<svg width="25" height="24" viewBox="0 0 25 24" fill="none" xmlns="http://www.w3.org/2000/svg">
<path d="M24.2132 5.54778C24.1081 8.25029 22.4761 11.9474 19.3219 16.6444C16.0614 21.5481 13.2991 24 11.0386 24C9.63863 24 8.45579 22.5041 7.48896 19.5216C6.8444 16.7818 6.20098 14.0419 5.54957 11.3088C4.83301 8.32628 4.06388 6.83037 3.23532 6.83037C3.05819 6.83037 2.42734 7.27035 1.35536 8.13696L0.225098 6.45039C1.40793 5.24247 2.57934 4.04387 3.72903 2.83728C5.30614 1.25738 6.49698 0.430759 7.28553 0.346764C9.15178 0.142776 10.3026 1.61469 10.7369 4.77983C11.2032 8.18762 11.5254 10.3128 11.7094 11.1394C12.2489 13.9713 12.8409 15.3832 13.4843 15.3832C13.9837 15.3832 14.7402 14.4659 15.7459 12.6287C16.7516 10.7915 17.2899 9.39555 17.3631 8.43827C17.507 6.8517 16.9688 6.06242 15.7459 6.06242C15.1745 6.06242 14.5825 6.21441 13.9711 6.51839C15.1482 2.04799 17.4019 -0.123874 20.7287 0.00545106C23.1938 0.0814465 24.3572 1.93333 24.2132 5.54645V5.54778Z" fill="#E27D60"/>
</svg>
