<svg width="20" height="23" viewBox="0 0 20 23" fill="none" xmlns="http://www.w3.org/2000/svg">
<path d="M2.28571 1H16.4286C17.1106 1 17.7646 1.25754 18.2468 1.71596C18.7291 2.17438 19 2.79614 19 3.44444V18.1111C19 18.7594 18.7291 19.3812 18.2468 19.8396C17.7646 20.298 17.1106 20.5556 16.4286 20.5556H2.28571C1.94472 20.5556 1.6177 20.4268 1.37658 20.1976C1.13546 19.9684 1 19.6575 1 19.3333V2.22222C1 1.89807 1.13546 1.58719 1.37658 1.35798C1.6177 1.12877 1.94472 1 2.28571 1M6.14286 1V23M11.2857 5.88889H13.8571M11.2857 10.7778H13.8571" stroke="#303030" stroke-width="2" stroke-linecap="round" stroke-linejoin="round"/>
</svg>
