<svg width="104" height="16" viewBox="0 0 104 16" fill="none" xmlns="http://www.w3.org/2000/svg">
<path d="M90.8647 14.8519C90.7867 15.2964 91.2247 15.6437 91.6107 15.4455L96.0007 13.1873L100.39 15.4455C100.776 15.6437 101.214 15.2964 101.136 14.8529L100.306 10.1183L103.828 6.75906C104.158 6.44475 103.988 5.8702 103.546 5.80814L98.6477 5.11146L96.4637 0.780246C96.422 0.692449 96.3564 0.618271 96.2744 0.56633C96.1923 0.514389 96.0972 0.486816 96.0002 0.486816C95.9031 0.486816 95.808 0.514389 95.7259 0.56633C95.6439 0.618271 95.5783 0.692449 95.5367 0.780246L93.3527 5.11246L88.4547 5.80914C88.0137 5.8712 87.8427 6.44576 88.1717 6.76006L91.6947 10.1193L90.8647 14.8539V14.8519ZM95.7697 12.0822L92.0837 13.9781L92.7777 10.0172C92.7939 9.92605 92.7876 9.83228 92.7591 9.74414C92.7307 9.656 92.6811 9.57619 92.6147 9.51174L89.7087 6.73904L93.7607 6.16248C93.8446 6.1498 93.9241 6.11695 93.9926 6.06674C94.061 6.01653 94.1163 5.95047 94.1537 5.8742L95.9987 2.21264L97.8457 5.8742C97.883 5.95047 97.9383 6.01653 98.0067 6.06674C98.0752 6.11695 98.1547 6.1498 98.2387 6.16248L102.291 6.73804L99.3847 9.51074C99.3181 9.57529 99.2684 9.65526 99.2399 9.74359C99.2115 9.83192 99.2052 9.9259 99.2217 10.0172L99.9157 13.9781L96.2297 12.0822C96.1584 12.0455 96.0793 12.0263 95.9992 12.0263C95.919 12.0263 95.8399 12.0455 95.7687 12.0822H95.7697Z" fill="#E8A87C"/>
<path d="M3.61065 15.4449C3.22465 15.6431 2.78665 15.2957 2.86465 14.8523L3.69465 10.1177L0.171653 6.75842C-0.157347 6.44411 0.0136534 5.86955 0.454653 5.80749L5.35265 5.11081L7.53665 0.779601C7.73365 0.389221 8.26665 0.389221 8.46365 0.779601L10.6477 5.11081L15.5457 5.80749C15.9867 5.86955 16.1577 6.44411 15.8277 6.75842L12.3057 10.1177L13.1357 14.8523C13.2137 15.2957 12.7757 15.6431 12.3897 15.4449L7.99865 13.1867L3.60965 15.4449H3.61065Z" fill="#E8A87C"/>
<path d="M25.6107 15.4449C25.2247 15.6431 24.7867 15.2957 24.8647 14.8523L25.6947 10.1177L22.1717 6.75842C21.8427 6.44411 22.0137 5.86955 22.4547 5.80749L27.3527 5.11081L29.5367 0.779601C29.7337 0.389221 30.2667 0.389221 30.4637 0.779601L32.6477 5.11081L37.5457 5.80749C37.9867 5.86955 38.1577 6.44411 37.8277 6.75842L34.3057 10.1177L35.1357 14.8523C35.2137 15.2957 34.7757 15.6431 34.3897 15.4449L29.9987 13.1867L25.6097 15.4449H25.6107Z" fill="#E8A87C"/>
<path d="M47.6107 15.4449C47.2247 15.6431 46.7867 15.2957 46.8647 14.8523L47.6947 10.1177L44.1717 6.75842C43.8427 6.44411 44.0137 5.86955 44.4547 5.80749L49.3527 5.11081L51.5367 0.779601C51.7337 0.389221 52.2667 0.389221 52.4637 0.779601L54.6477 5.11081L59.5457 5.80749C59.9867 5.86955 60.1577 6.44411 59.8277 6.75842L56.3057 10.1177L57.1357 14.8523C57.2137 15.2957 56.7757 15.6431 56.3897 15.4449L51.9987 13.1867L47.6097 15.4449H47.6107Z" fill="#E8A87C"/>
<path d="M71.353 5.11031L73.537 0.779101C73.579 0.69197 73.6445 0.618378 73.7262 0.566704C73.8079 0.51503 73.9024 0.48735 73.999 0.486816C74.182 0.486816 74.365 0.583911 74.464 0.779101L76.648 5.11031L81.546 5.80699C81.6681 5.8262 81.7798 5.88698 81.8624 5.97907C81.9449 6.07115 81.9931 6.18891 81.999 6.31248C82.006 6.39475 81.9943 6.47753 81.9649 6.55466C81.9355 6.63178 81.889 6.70126 81.829 6.75792L78.306 10.1172L79.136 14.8518C79.214 15.2952 78.776 15.6426 78.39 15.4444L73.999 13.1862L69.61 15.4444C69.5641 15.4682 69.5149 15.4851 69.464 15.4944C69.122 15.5545 68.796 15.2402 68.864 14.8518L69.694 10.1172L66.172 6.75792C66.1173 6.70606 66.0737 6.6435 66.0441 6.5741C66.0146 6.50471 65.9995 6.42997 66 6.35452C66.0001 6.24786 66.0295 6.14326 66.085 6.05223C66.1244 5.98623 66.1781 5.92994 66.2421 5.88749C66.3062 5.84505 66.3789 5.81754 66.455 5.80699L71.353 5.11031ZM73.999 12.025C74.0797 12.0247 74.1593 12.0439 74.231 12.0811L77.917 13.9769L77.223 10.0161C77.2066 9.92499 77.2128 9.83126 77.2411 9.74313C77.2693 9.65499 77.3187 9.57515 77.385 9.51059L80.292 6.7379L76.24 6.16133C76.1561 6.14865 76.0765 6.1158 76.0081 6.06559C75.9396 6.01539 75.8844 5.94932 75.847 5.87305L74 2.21149L73.999 2.2145V12.024V12.025Z" fill="#E8A87C"/>
</svg>
