<svg width="26" height="21" viewBox="0 0 26 21" fill="none" xmlns="http://www.w3.org/2000/svg">
<path d="M4.11111 17C3.7963 17 3.53259 16.888 3.32 16.664C3.10667 16.4408 3 16.1639 3 15.8333C3 15.5028 3.10667 15.2259 3.32 15.0027C3.53259 14.7787 3.7963 14.6667 4.11111 14.6667H21.8889C22.2037 14.6667 22.4674 14.7787 22.68 15.0027C22.8933 15.2259 23 15.5028 23 15.8333C23 16.1639 22.8933 16.4408 22.68 16.664C22.4674 16.888 22.2037 17 21.8889 17H4.11111ZM4.11111 11.1667C3.7963 11.1667 3.53259 11.0547 3.32 10.8307C3.10667 10.6074 3 10.3306 3 10C3 9.66944 3.10667 9.39217 3.32 9.16817C3.53259 8.94494 3.7963 8.83333 4.11111 8.83333H21.8889C22.2037 8.83333 22.4674 8.94494 22.68 9.16817C22.8933 9.39217 23 9.66944 23 10C23 10.3306 22.8933 10.6074 22.68 10.8307C22.4674 11.0547 22.2037 11.1667 21.8889 11.1667H4.11111ZM4.11111 5.33333C3.7963 5.33333 3.53259 5.22172 3.32 4.9985C3.10667 4.7745 3 4.49722 3 4.16667C3 3.83611 3.10667 3.55883 3.32 3.33483C3.53259 3.11161 3.7963 3 4.11111 3H21.8889C22.2037 3 22.4674 3.11161 22.68 3.33483C22.8933 3.55883 23 3.83611 23 4.16667C23 4.49722 22.8933 4.7745 22.68 4.9985C22.4674 5.22172 22.2037 5.33333 21.8889 5.33333H4.11111Z" fill="white"/>
</svg>
