<svg width="104" height="14" viewBox="0 0 104 14" fill="none" xmlns="http://www.w3.org/2000/svg">
<path d="M90.8647 13.3934C90.7867 13.8077 91.2247 14.1316 91.6107 13.9468L96.0007 11.8414L100.39 13.9468C100.776 14.1316 101.214 13.8077 101.136 13.3943L100.306 8.97998L103.828 5.84796C104.158 5.55491 103.988 5.01922 103.546 4.96136L98.6477 4.31181L96.4637 0.27358C96.422 0.191722 96.3564 0.122562 96.2744 0.0741348C96.1923 0.0257071 96.0972 0 96.0002 0C95.9031 0 95.808 0.0257071 95.7259 0.0741348C95.6439 0.122562 95.5783 0.191722 95.5367 0.27358L93.3527 4.31274L88.4547 4.96229C88.0137 5.02015 87.8427 5.55584 88.1717 5.84889L91.6947 8.98092L90.8647 13.3952V13.3934ZM95.7697 10.811L92.0837 12.5786L92.7777 8.88572C92.7939 8.80072 92.7876 8.71328 92.7591 8.6311C92.7307 8.54893 92.6811 8.47452 92.6147 8.41443L89.7087 5.82929L93.7607 5.29173C93.8446 5.27991 93.9241 5.24928 93.9926 5.20247C94.061 5.15566 94.1163 5.09406 94.1537 5.02295L95.9987 1.60908L97.8457 5.02295C97.883 5.09406 97.9383 5.15566 98.0067 5.20247C98.0752 5.24928 98.1547 5.27991 98.2387 5.29173L102.291 5.82836L99.3847 8.41349C99.3181 8.47368 99.2684 8.54824 99.2399 8.6306C99.2115 8.71295 99.2052 8.80057 99.2217 8.88572L99.9157 12.5786L96.2297 10.811C96.1584 10.7767 96.0793 10.7589 95.9992 10.7589C95.919 10.7589 95.8399 10.7767 95.7687 10.811H95.7697Z" fill="#E8A87C"/>
<path d="M3.61065 13.9462C3.22465 14.131 2.78665 13.8071 2.86465 13.3937L3.69465 8.97938L0.171653 5.84735C-0.157347 5.55431 0.0136534 5.01862 0.454653 4.96076L5.35265 4.3112L7.53665 0.272979C7.73365 -0.0909931 8.26665 -0.0909931 8.46365 0.272979L10.6477 4.3112L15.5457 4.96076C15.9867 5.01862 16.1577 5.55431 15.8277 5.84735L12.3057 8.97938L13.1357 13.3937C13.2137 13.8071 12.7757 14.131 12.3897 13.9462L7.99865 11.8408L3.60965 13.9462H3.61065Z" fill="#E8A87C"/>
<path d="M25.6107 13.9462C25.2247 14.131 24.7867 13.8071 24.8647 13.3937L25.6947 8.97938L22.1717 5.84735C21.8427 5.55431 22.0137 5.01862 22.4547 4.96076L27.3527 4.3112L29.5367 0.272979C29.7337 -0.0909931 30.2667 -0.0909931 30.4637 0.272979L32.6477 4.3112L37.5457 4.96076C37.9867 5.01862 38.1577 5.55431 37.8277 5.84735L34.3057 8.97938L35.1357 13.3937C35.2137 13.8071 34.7757 14.131 34.3897 13.9462L29.9987 11.8408L25.6097 13.9462H25.6107Z" fill="#E8A87C"/>
<path d="M47.6107 13.9462C47.2247 14.131 46.7867 13.8071 46.8647 13.3937L47.6947 8.97938L44.1717 5.84735C43.8427 5.55431 44.0137 5.01862 44.4547 4.96076L49.3527 4.3112L51.5367 0.272979C51.7337 -0.0909931 52.2667 -0.0909931 52.4637 0.272979L54.6477 4.3112L59.5457 4.96076C59.9867 5.01862 60.1577 5.55431 59.8277 5.84735L56.3057 8.97938L57.1357 13.3937C57.2137 13.8071 56.7757 14.131 56.3897 13.9462L51.9987 11.8408L47.6097 13.9462H47.6107Z" fill="#E8A87C"/>
<path d="M71.353 4.31074L73.537 0.272513C73.579 0.191275 73.6445 0.122662 73.7262 0.0744833C73.8079 0.0263049 73.9024 0.000497691 73.999 0C74.182 0 74.365 0.0905264 74.464 0.272513L76.648 4.31074L81.546 4.96029C81.6681 4.9782 81.7798 5.03487 81.8624 5.12072C81.9449 5.20658 81.9931 5.31638 81.999 5.43159C82.006 5.50829 81.9943 5.58547 81.9649 5.65738C81.9355 5.72929 81.889 5.79407 81.829 5.84689L78.306 8.97892L79.136 13.3932C79.214 13.8067 78.776 14.1305 78.39 13.9457L73.999 11.8403L69.61 13.9457C69.5641 13.968 69.5149 13.9837 69.464 13.9924C69.122 14.0484 68.796 13.7554 68.864 13.3932L69.694 8.97892L66.172 5.84689C66.1173 5.79854 66.0737 5.74021 66.0441 5.67551C66.0146 5.61081 65.9995 5.54113 66 5.47078C66.0001 5.37133 66.0295 5.27382 66.085 5.18894C66.1244 5.12741 66.1781 5.07492 66.2421 5.03534C66.3062 4.99577 66.3789 4.97012 66.455 4.96029L71.353 4.31074ZM73.999 10.7577C74.0797 10.7574 74.1593 10.7753 74.231 10.81L77.917 12.5776L77.223 8.88466C77.2066 8.79973 77.2128 8.71234 77.2411 8.63017C77.2693 8.54799 77.3187 8.47355 77.385 8.41336L80.292 5.82822L76.24 5.29066C76.1561 5.27884 76.0765 5.24821 76.0081 5.2014C75.9396 5.15459 75.8844 5.09299 75.847 5.02188L74 1.60801L73.999 1.61081V10.7568V10.7577Z" fill="#E8A87C"/>
</svg>
