<svg width="10" height="10" viewBox="0 0 10 10" fill="none" xmlns="http://www.w3.org/2000/svg">
<path opacity="0.5" d="M2.5 0.3125C2.5 0.22962 2.46708 0.150134 2.40847 0.0915291C2.34987 0.032924 2.27038 0 2.1875 0C2.10462 0 2.02513 0.032924 1.96653 0.0915291C1.90792 0.150134 1.875 0.22962 1.875 0.3125V0.625H1.25C0.918479 0.625 0.600537 0.756696 0.366117 0.991117C0.131696 1.22554 0 1.54348 0 1.875L0 2.5H10V1.875C10 1.54348 9.8683 1.22554 9.63388 0.991117C9.39946 0.756696 9.08152 0.625 8.75 0.625H8.125V0.3125C8.125 0.22962 8.09208 0.150134 8.03347 0.0915291C7.97487 0.032924 7.89538 0 7.8125 0C7.72962 0 7.65013 0.032924 7.59153 0.0915291C7.53292 0.150134 7.5 0.22962 7.5 0.3125V0.625H2.5V0.3125ZM10 8.75V3.125H0V8.75C0 9.08152 0.131696 9.39946 0.366117 9.63388C0.600537 9.8683 0.918479 10 1.25 10H8.75C9.08152 10 9.39946 9.8683 9.63388 9.63388C9.8683 9.39946 10 9.08152 10 8.75ZM6.78375 5.53375L4.90875 7.40875C4.87972 7.43785 4.84524 7.46094 4.80727 7.4767C4.76931 7.49245 4.7286 7.50056 4.6875 7.50056C4.6464 7.50056 4.60569 7.49245 4.56773 7.4767C4.52976 7.46094 4.49528 7.43785 4.46625 7.40875L3.52875 6.47125C3.47007 6.41257 3.43711 6.33298 3.43711 6.25C3.43711 6.16702 3.47007 6.08743 3.52875 6.02875C3.58743 5.97007 3.66702 5.93711 3.75 5.93711C3.83298 5.93711 3.91257 5.97007 3.97125 6.02875L4.6875 6.74563L6.34125 5.09125C6.39993 5.03257 6.47952 4.99961 6.5625 4.99961C6.64548 4.99961 6.72507 5.03257 6.78375 5.09125C6.84243 5.14993 6.87539 5.22952 6.87539 5.3125C6.87539 5.39548 6.84243 5.47507 6.78375 5.53375Z" fill="#303030"/>
</svg>
