<svg width="100" height="20" viewBox="0 0 100 20" fill="none" xmlns="http://www.w3.org/2000/svg">
<path d="M0.264 18.52L1.728 18.304V8.22404L0 7.79204V6.49604L3.432 6.06404L3.864 6.37604L4.008 7.33604L3.984 8.10404C4.544 7.59204 5.304 7.12804 6.264 6.71204C7.24 6.28004 8.112 6.06404 8.88 6.06404C9.744 6.06404 10.44 6.20804 10.968 6.49604C11.496 6.78404 11.896 7.23204 12.168 7.84004C12.68 7.40804 13.392 7.00804 14.304 6.64004C15.232 6.25604 16.096 6.06404 16.896 6.06404C17.888 6.06404 18.664 6.25604 19.224 6.64004C19.784 7.00804 20.176 7.59204 20.4 8.39204C20.64 9.17604 20.76 10.232 20.76 11.56V18.304L22.488 18.52V19.696H16.776V18.52L18.264 18.304V11.632C18.264 10.704 18.192 9.96804 18.048 9.42404C17.92 8.86404 17.664 8.44804 17.28 8.17604C16.912 7.90404 16.376 7.76804 15.672 7.76804C15.144 7.76804 14.584 7.88804 13.992 8.12804C13.4 8.35204 12.896 8.62404 12.48 8.94404C12.624 9.56804 12.696 10.456 12.696 11.608V18.304L14.4 18.52V19.696H8.592V18.52L10.176 18.304V11.584C10.176 10.624 10.112 9.88004 9.984 9.35204C9.872 8.82404 9.648 8.43204 9.312 8.17604C8.976 7.90404 8.464 7.76804 7.776 7.76804C7.2 7.76804 6.584 7.91204 5.928 8.20004C5.288 8.48804 4.728 8.82404 4.248 9.20804V18.304L5.856 18.52V19.696H0.264V18.52ZM27.4828 3.97604C26.9708 3.97604 26.5868 3.83204 26.3308 3.54404C26.0748 3.25604 25.9468 2.88804 25.9468 2.44004C25.9468 1.92804 26.0988 1.50404 26.4028 1.16804C26.7228 0.832041 27.1548 0.66404 27.6988 0.66404C28.2428 0.66404 28.6428 0.808041 28.8988 1.09604C29.1548 1.38404 29.2828 1.75204 29.2828 2.20004C29.2828 2.74404 29.1228 3.17604 28.8028 3.49604C28.4988 3.81604 28.0668 3.97604 27.5068 3.97604H27.4828ZM26.5228 8.22404L24.6988 7.79204V6.52004L28.4188 6.06404H28.4668L29.0188 6.49604V18.328L30.9388 18.52V19.696H24.5788V18.52L26.5228 18.304V8.22404ZM34.875 1.79204L32.931 1.52804V0.496041L36.795 0.0400391H36.843L37.371 0.400041V18.328L39.411 18.52V19.696H32.931V18.52L34.875 18.304V1.79204ZM43.3472 1.79204L41.4032 1.52804V0.496041L45.2672 0.0400391H45.3152L45.8432 0.400041V18.328L47.8832 18.52V19.696H41.4032V18.52L43.3472 18.304V1.79204ZM52.8994 3.97604C52.3874 3.97604 52.0034 3.83204 51.7474 3.54404C51.4914 3.25604 51.3634 2.88804 51.3634 2.44004C51.3634 1.92804 51.5154 1.50404 51.8194 1.16804C52.1394 0.832041 52.5714 0.66404 53.1154 0.66404C53.6594 0.66404 54.0594 0.808041 54.3154 1.09604C54.5714 1.38404 54.6994 1.75204 54.6994 2.20004C54.6994 2.74404 54.5394 3.17604 54.2194 3.49604C53.9154 3.81604 53.4834 3.97604 52.9234 3.97604H52.8994ZM51.9394 8.22404L50.1154 7.79204V6.52004L53.8354 6.06404H53.8834L54.4354 6.49604V18.328L56.3554 18.52V19.696H49.9954V18.52L51.9394 18.304V8.22404ZM58.5396 13C58.5396 11.56 58.8356 10.312 59.4276 9.25604C60.0196 8.20004 60.7956 7.40004 61.7556 6.85604C62.7316 6.29604 63.7716 6.01604 64.8756 6.01604C66.8916 6.01604 68.4036 6.65604 69.4116 7.93604C70.4356 9.21604 70.9476 10.896 70.9476 12.976C70.9476 14.432 70.6516 15.688 70.0596 16.744C69.4676 17.8 68.6836 18.6 67.7076 19.144C66.7476 19.688 65.7156 19.96 64.6116 19.96C62.5956 19.96 61.0756 19.32 60.0516 18.04C59.0436 16.76 58.5396 15.08 58.5396 13ZM64.7556 18.592C65.8596 18.592 66.7076 18.136 67.2996 17.224C67.8916 16.312 68.1876 14.96 68.1876 13.168C68.1876 11.392 67.9156 9.98404 67.3716 8.94404C66.8276 7.90404 65.9556 7.38404 64.7556 7.38404C63.6516 7.38404 62.7956 7.84004 62.1876 8.75204C61.5956 9.66404 61.2996 11.016 61.2996 12.808C61.2996 14.584 61.5796 15.992 62.1396 17.032C62.6996 18.072 63.5716 18.592 64.7556 18.592ZM84.5411 19.912C84.0931 19.912 83.7571 19.824 83.5331 19.648C83.3251 19.472 83.2211 19.184 83.2211 18.784V17.968C82.6931 18.496 82.0291 18.96 81.2291 19.36C80.4451 19.76 79.6531 19.96 78.8531 19.96C77.3651 19.96 76.3091 19.56 75.6851 18.76C75.0611 17.96 74.7491 16.64 74.7491 14.8V7.84004L73.4051 7.45604V6.40004L76.7651 6.08804H76.7891L77.2451 6.37604V14.608C77.2451 15.536 77.3091 16.264 77.4371 16.792C77.5811 17.304 77.8211 17.688 78.1571 17.944C78.5091 18.184 79.0131 18.304 79.6691 18.304C80.3091 18.304 80.9091 18.168 81.4691 17.896C82.0291 17.624 82.5171 17.304 82.9331 16.936V7.84004L81.2051 7.45604V6.40004L84.8531 6.08804H84.8771L85.4291 6.37604V18.472H86.8691L86.8451 19.552C86.3971 19.664 86.0051 19.752 85.6691 19.816C85.3491 19.88 84.9731 19.912 84.5411 19.912ZM91.4972 17.776C91.6572 18.016 91.9932 18.232 92.5052 18.424C93.0332 18.616 93.5852 18.712 94.1612 18.712C95.0732 18.712 95.7452 18.536 96.1772 18.184C96.6092 17.832 96.8252 17.344 96.8252 16.72C96.8252 16.288 96.6892 15.912 96.4172 15.592C96.1452 15.272 95.7612 14.992 95.2652 14.752C94.7852 14.496 94.0892 14.192 93.1772 13.84C91.9452 13.376 91.0412 12.824 90.4652 12.184C89.9052 11.528 89.6252 10.672 89.6252 9.61604C89.6252 8.91204 89.8332 8.29604 90.2492 7.76804C90.6812 7.24004 91.2652 6.83204 92.0012 6.54404C92.7532 6.24004 93.5852 6.08804 94.4972 6.08804C95.2332 6.08804 95.8732 6.14404 96.4172 6.25604C96.9772 6.36804 97.4252 6.48004 97.7612 6.59204C98.0972 6.70404 98.3212 6.77604 98.4332 6.80804V9.78404H96.9692L96.4892 8.00804C96.3932 7.81604 96.1372 7.65604 95.7212 7.52804C95.3052 7.38404 94.8412 7.31204 94.3292 7.31204C93.6092 7.31204 93.0252 7.47204 92.5772 7.79204C92.1452 8.11204 91.9292 8.54404 91.9292 9.08804C91.9292 9.56804 92.0412 9.96804 92.2652 10.288C92.5052 10.592 92.8012 10.84 93.1532 11.032C93.5052 11.224 93.9852 11.448 94.5932 11.704L95.0732 11.896C95.9692 12.248 96.6972 12.584 97.2572 12.904C97.8172 13.224 98.2812 13.648 98.6492 14.176C99.0332 14.688 99.225 15.32 99.225 16.072C99.225 17.256 98.7612 18.2 97.8332 18.904C96.9212 19.608 95.6652 19.96 94.0652 19.96C93.2812 19.96 92.4572 19.856 91.5932 19.648C90.7452 19.424 90.0492 19.2 89.5052 18.976V15.904H91.0652L91.4972 17.776Z" fill="white"/>
</svg>
