<svg width="99" height="20" viewBox="0 0 99 20" fill="none" xmlns="http://www.w3.org/2000/svg">
<path d="M0.263401 18.5542L1.72408 18.3373V8.21687L0 7.78313V6.48193L3.42422 6.04819L3.85524 6.36145L3.99891 7.3253L3.97497 8.09639C4.5337 7.58233 5.29197 7.11647 6.2498 6.6988C7.22358 6.26506 8.09361 6.04819 8.85986 6.04819C9.72191 6.04819 10.4163 6.19277 10.9431 6.48193C11.4699 6.77109 11.869 7.22088 12.1404 7.83133C12.6512 7.39759 13.3616 6.99598 14.2716 6.62651C15.1975 6.24096 16.0595 6.04819 16.8577 6.04819C17.8474 6.04819 18.6217 6.24096 19.1804 6.62651C19.7391 6.99598 20.1302 7.58233 20.3537 8.38554C20.5932 9.17269 20.7129 10.2329 20.7129 11.5663V18.3373L22.437 18.5542V19.7349H16.738V18.5542L18.2226 18.3373V11.6386C18.2226 10.7068 18.1507 9.96787 18.0071 9.42169C17.8794 8.85944 17.6239 8.44177 17.2408 8.16868C16.8737 7.89558 16.3389 7.75904 15.6365 7.75904C15.1097 7.75904 14.5509 7.87952 13.9603 8.12048C13.3696 8.34538 12.8668 8.61847 12.4517 8.93976C12.5954 9.56627 12.6672 10.4578 12.6672 11.6145V18.3373L14.3673 18.5542V19.7349H8.57252V18.5542L10.1529 18.3373V11.5904C10.1529 10.6265 10.0891 9.87952 9.96136 9.3494C9.84962 8.81928 9.62612 8.4257 9.29088 8.16868C8.95565 7.89558 8.44481 7.75904 7.75837 7.75904C7.18367 7.75904 6.56907 7.90361 5.91456 8.19277C5.27601 8.48193 4.71728 8.81928 4.23837 9.20482V18.3373L5.84272 18.5542V19.7349H0.263401V18.5542ZM27.4205 3.95181C26.9096 3.95181 26.5265 3.80723 26.2711 3.51807C26.0157 3.22892 25.888 2.85944 25.888 2.40964C25.888 1.89558 26.0396 1.46988 26.3429 1.13253C26.6622 0.795183 27.0932 0.626507 27.636 0.626507C28.1788 0.626507 28.5779 0.771086 28.8333 1.06024C29.0887 1.3494 29.2164 1.71888 29.2164 2.16868C29.2164 2.71486 29.0568 3.1486 28.7375 3.46988C28.4342 3.79117 28.0032 3.95181 27.4444 3.95181H27.4205ZM26.4627 8.21687L24.6428 7.78313V6.50603L28.3544 6.04819H28.4023L28.953 6.48193V18.3614L30.8686 18.5542V19.7349H24.5231V18.5542L26.4627 18.3373V8.21687ZM34.7959 1.75904L32.8563 1.49398V0.457833L36.7116 0H36.7595L37.2863 0.361448V18.3614L39.3216 18.5542V19.7349H32.8563V18.5542L34.7959 18.3373V1.75904ZM43.2489 1.75904L41.3093 1.49398V0.457833L45.1646 0H45.2124L45.7393 0.361448V18.3614L47.7746 18.5542V19.7349H41.3093V18.5542L43.2489 18.3373V1.75904ZM52.7794 3.95181C52.2686 3.95181 51.8855 3.80723 51.6301 3.51807C51.3746 3.22892 51.2469 2.85944 51.2469 2.40964C51.2469 1.89558 51.3986 1.46988 51.7019 1.13253C52.0212 0.795183 52.4522 0.626507 52.995 0.626507C53.5377 0.626507 53.9368 0.771086 54.1922 1.06024C54.4477 1.3494 54.5754 1.71888 54.5754 2.16868C54.5754 2.71486 54.4157 3.1486 54.0965 3.46988C53.7931 3.79117 53.3621 3.95181 52.8034 3.95181H52.7794ZM51.8216 8.21687L50.0018 7.78313V6.50603L53.7133 6.04819H53.7612L54.312 6.48193V18.3614L56.2276 18.5542V19.7349H49.882V18.5542L51.8216 18.3373V8.21687ZM58.4069 13.012C58.4069 11.5663 58.7022 10.3133 59.2928 9.25301C59.8835 8.19277 60.6577 7.38956 61.6156 6.84337C62.5894 6.28113 63.627 6 64.7285 6C66.7399 6 68.2485 6.64257 69.2542 7.92771C70.2759 9.21285 70.7867 10.8996 70.7867 12.988C70.7867 14.4498 70.4914 15.7108 69.9007 16.7711C69.3101 17.8313 68.5279 18.6345 67.5541 19.1807C66.5963 19.7269 65.5666 20 64.4651 20C62.4537 20 60.9371 19.3574 59.9154 18.0723C58.9097 16.7871 58.4069 15.1004 58.4069 13.012ZM64.6088 18.6265C65.7103 18.6265 66.5563 18.1687 67.147 17.253C67.7376 16.3373 68.033 14.9799 68.033 13.1807C68.033 11.3976 67.7616 9.98394 67.2188 8.93976C66.6761 7.89558 65.806 7.3735 64.6088 7.3735C63.5073 7.3735 62.6532 7.83133 62.0466 8.74699C61.4559 9.66265 61.1606 11.0201 61.1606 12.8193C61.1606 14.6024 61.44 16.0161 61.9987 17.0602C62.5574 18.1044 63.4274 18.6265 64.6088 18.6265ZM84.3494 19.9518C83.9024 19.9518 83.5672 19.8635 83.3437 19.6867C83.1362 19.51 83.0324 19.2209 83.0324 18.8193V18C82.5056 18.5301 81.8431 18.996 81.0449 19.3976C80.2627 19.7992 79.4725 20 78.6743 20C77.1897 20 76.1361 19.5984 75.5135 18.7952C74.8909 17.992 74.5796 16.6667 74.5796 14.8193V7.83133L73.2386 7.44578V6.38554L76.591 6.07229H76.615L77.0699 6.36145V14.6265C77.0699 15.5582 77.1338 16.2892 77.2615 16.8193C77.4052 17.3333 77.6446 17.7189 77.9799 17.9759C78.3311 18.2169 78.8339 18.3373 79.4884 18.3373C80.127 18.3373 80.7256 18.2008 81.2844 17.9277C81.8431 17.6546 82.33 17.3333 82.745 16.9639V7.83133L81.021 7.44578V6.38554L84.6607 6.07229H84.6846L85.2354 6.36145V18.506H86.6721L86.6482 19.5904C86.2012 19.7028 85.8101 19.7912 85.4748 19.8554C85.1556 19.9197 84.7804 19.9518 84.3494 19.9518ZM91.2897 17.8072C91.4494 18.0482 91.7846 18.2651 92.2954 18.4578C92.8223 18.6506 93.373 18.747 93.9477 18.747C94.8576 18.747 95.5281 18.5703 95.9591 18.2169C96.3901 17.8635 96.6056 17.3735 96.6056 16.747C96.6056 16.3133 96.4699 15.9357 96.1986 15.6145C95.9272 15.2932 95.5441 15.012 95.0492 14.7711C94.5703 14.5141 93.8758 14.2088 92.9659 13.8554C91.7367 13.3896 90.8348 12.8353 90.2601 12.1928C89.7013 11.5341 89.422 10.6747 89.422 9.61446C89.422 8.90763 89.6295 8.28916 90.0446 7.75904C90.4756 7.22892 91.0583 6.81928 91.7926 6.53012C92.5429 6.2249 93.373 6.07229 94.2829 6.07229C95.0173 6.07229 95.6558 6.12852 96.1986 6.24096C96.7573 6.35341 97.2043 6.46586 97.5395 6.57831C97.8748 6.69076 98.0983 6.76305 98.21 6.79518V9.78313H96.7493L96.2704 8C96.1746 7.80723 95.9192 7.64659 95.5042 7.51807C95.0891 7.37349 94.6261 7.30121 94.1153 7.30121C93.3969 7.30121 92.8143 7.46185 92.3673 7.78313C91.9363 8.10442 91.7207 8.53815 91.7207 9.08434C91.7207 9.56627 91.8325 9.96787 92.056 10.2892C92.2954 10.5944 92.5908 10.8434 92.942 11.0361C93.2932 11.2289 93.7721 11.4538 94.3787 11.7108L94.8576 11.9036C95.7516 12.257 96.4779 12.5944 97.0367 12.9157C97.5954 13.2369 98.0583 13.6627 98.4255 14.1928C98.8086 14.7068 99 15.3414 99 16.0964C99 17.2851 98.5373 18.2329 97.6114 18.9398C96.7014 19.6466 95.4483 20 93.8519 20C93.0697 20 92.2476 19.8956 91.3855 19.6867C90.5394 19.4618 89.845 19.2369 89.3022 19.012V15.9277H90.8587L91.2897 17.8072Z" fill="#303030"/>
</svg>
